<?xml version="1.0" encoding="UTF-8"?>
<svg id="Livello_1" data-name="Livello 1" xmlns="http://www.w3.org/2000/svg" viewBox="0 0 231.48 198.75">
  <defs>
    <style>
      .cls-1 {
        stroke: #b9ce00;
        stroke-width: 2px;
      }

      .cls-1, .cls-2 {
        fill: none;
        stroke-miterlimit: 10;
      }

      .cls-2 {
        stroke: #000;
        stroke-width: .5px;
      }

      .cls-3 {
        fill: #e52421;
      }

      .cls-4 {
        fill: #ce8a3b;
      }

      .cls-5 {
        fill: #b9ce00;
      }
    </style>
  </defs>
  <circle cx="65.56" cy="62.89" r="4.75"/>
  <line class="cls-1" x1="12.88" y1="43.49" x2="218.6" y2="43.49"/>
  <polygon class="cls-3" points="26.61 37.59 42.41 37.59 53.76 49 76.97 49.05 88.88 37.5 104.5 37.5 104.51 49 92.42 49 80.43 63.43 49.91 63.43 38.23 48.96 26.65 48.96 26.61 37.59"/>
  <line class="cls-2" x1="65.56" y1="66.32" x2="65.56" y2="81.18"/>
  <g>
    <rect class="cls-4" x="55.69" y="80.83" width="12.25" height="79.72" transform="translate(11.16 -5.09) rotate(5.18)"/>
    <polygon class="cls-4" points="70.27 95.43 74.49 92.61 68.73 104.78 68.96 95.51 70.27 95.43"/>
    <polygon class="cls-4" points="68 120.43 72.23 117.62 66.46 129.79 66.69 120.51 68 120.43"/>
    <polygon class="cls-4" points="65.73 145.44 69.96 142.62 64.19 154.79 64.42 145.52 65.73 145.44"/>
    <polygon class="cls-4" points="56.17 115.18 53.83 105.89 58.38 112 56.17 115.18"/>
    <polygon class="cls-4" points="54.24 136.43 51.9 127.14 56.45 133.25 54.24 136.43"/>
  </g>
  <g>
    <path class="cls-5" d="M84.54,160.07c-.65.23-1.54.43-2.69.61-1.14.17-2.5.26-4.07.26-1.99,0-3.68-.26-5.08-.78-1.4-.52-2.46-1.41-3.17-2.67-.72-1.26-1.08-3.01-1.08-5.25,0-3.05.7-5.26,2.1-6.62,1.4-1.37,3.56-2.05,6.5-2.05,2.1,0,3.76.3,4.98.9s2.08,1.45,2.6,2.55c.52,1.1.78,2.4.78,3.9,0,.44-.02.91-.05,1.42-.03.51-.1,1-.19,1.49l-.14.14h-11.41c.16,1.02.64,1.69,1.44,2.01s2.1.49,3.9.49c1.2,0,2.2-.03,3-.09.8-.06,1.61-.14,2.44-.26l.14.1v3.85ZM80.58,150.33c0-.56-.09-1.04-.26-1.44s-.51-.72-1.02-.94c-.51-.22-1.26-.33-2.25-.33-1.46,0-2.41.25-2.86.75-.45.5-.68,1.15-.68,1.96h7.07Z"/>
    <path class="cls-5" d="M93.9,160.63h-5.55v-23.33h5.55v23.33Z"/>
    <path class="cls-5" d="M112.93,160.07c-.65.23-1.54.43-2.69.61-1.14.17-2.5.26-4.07.26-1.99,0-3.68-.26-5.08-.78-1.4-.52-2.46-1.41-3.17-2.67-.72-1.26-1.08-3.01-1.08-5.25,0-3.05.7-5.26,2.1-6.62,1.4-1.37,3.56-2.05,6.5-2.05,2.1,0,3.76.3,4.98.9s2.08,1.45,2.6,2.55c.52,1.1.78,2.4.78,3.9,0,.44-.02.91-.05,1.42-.03.51-.1,1-.19,1.49l-.14.14h-11.41c.16,1.02.64,1.69,1.44,2.01s2.1.49,3.9.49c1.2,0,2.2-.03,3-.09.8-.06,1.61-.14,2.44-.26l.14.1v3.85ZM108.98,150.33c0-.56-.09-1.04-.26-1.44s-.51-.72-1.02-.94c-.51-.22-1.26-.33-2.25-.33-1.46,0-2.41.25-2.86.75-.45.5-.68,1.15-.68,1.96h7.07Z"/>
    <path class="cls-5" d="M115.36,148.25v-4.51h2.46v-.87c0-2.29.53-3.94,1.6-4.94,1.06-1,2.65-1.51,4.75-1.51.74,0,1.42.06,2.05.19.62.13,1.17.27,1.63.43v3.88l-.1.07c-.42-.05-.83-.08-1.25-.12-.41-.03-.81-.05-1.18-.05-.79,0-1.33.14-1.65.43-.31.29-.47.73-.47,1.33v1.14h4.65v4.51h-4.65v12.38h-5.38v-12.38h-2.46Z"/>
    <path class="cls-5" d="M145.48,160.07c-.65.23-1.54.43-2.69.61-1.14.17-2.5.26-4.07.26-1.99,0-3.68-.26-5.08-.78-1.4-.52-2.46-1.41-3.17-2.67-.72-1.26-1.08-3.01-1.08-5.25,0-3.05.7-5.26,2.1-6.62,1.4-1.37,3.56-2.05,6.5-2.05,2.1,0,3.76.3,4.98.9s2.08,1.45,2.6,2.55c.52,1.1.78,2.4.78,3.9,0,.44-.02.91-.05,1.42-.03.51-.1,1-.19,1.49l-.14.14h-11.41c.16,1.02.64,1.69,1.44,2.01s2.1.49,3.9.49c1.2,0,2.2-.03,3-.09.8-.06,1.61-.14,2.44-.26l.14.1v3.85ZM141.53,150.33c0-.56-.09-1.04-.26-1.44s-.51-.72-1.02-.94c-.51-.22-1.26-.33-2.25-.33-1.46,0-2.41.25-2.86.75-.45.5-.68,1.15-.68,1.96h7.07Z"/>
    <path class="cls-5" d="M154.85,160.63h-5.55v-16.88h4.51l.45,3.47h.1c.21-1.3.7-2.22,1.49-2.79s1.95-.85,3.5-.85c.62,0,1.19.03,1.7.08.51.06.94.11,1.28.16v5.41l-.07.07c-.37-.09-.79-.17-1.27-.24-.47-.07-1.01-.1-1.61-.1-.85,0-1.62.14-2.31.42-.68.28-1.21.82-1.6,1.61-.38.8-.57,1.98-.57,3.56l-.07,6.1Z"/>
    <path class="cls-5" d="M170,137.47c.07.83.1,1.53.1,2.08,0,.32,0,.65-.02.99-.01.33-.04.71-.09,1.13-.49.09-.96.16-1.42.21-.46.05-.93.07-1.39.07s-.88-.02-1.33-.07c-.45-.05-.91-.12-1.37-.21-.05-.39-.08-.76-.1-1.09s-.03-.67-.03-.99c0-.3.01-.63.03-.97.02-.35.06-.73.1-1.15.46-.12.93-.19,1.4-.23s.94-.05,1.41-.05c.44,0,.88.02,1.33.05.45.03.91.11,1.37.23ZM170,160.63h-5.55v-16.88h5.55v16.88Z"/>
    <path class="cls-5" d="M179.39,160.63h-5.55v-21.95h5.55v9.19h.1c.23,0,.5-.18.82-.55s.6-.74.85-1.11l4.65-7.53h6.03v.1l-3.95,6.38c-.35.58-.74,1.2-1.18,1.85-.44.66-.87,1.24-1.3,1.74-.43.5-.8.8-1.13.92v.1c.32.14.7.43,1.13.89.43.45.87.97,1.32,1.56.45.59.88,1.17,1.3,1.75l4.61,6.55v.1h-6.38l-4.33-6.66v.03c-.14-.23-.35-.54-.64-.92s-.59-.73-.9-1.06-.58-.49-.81-.49h-.17v9.08Z"/>
    <path class="cls-5" d="M201.27,143.57c2.22,0,4.01.23,5.37.69,1.36.46,2.36,1.31,3,2.55.64,1.24.95,3.02.95,5.36v8.46h-5.03l-.17-1.59h-.1c-.44.58-1.12,1.04-2.05,1.39-.93.35-2.13.52-3.61.52-4,0-6-1.87-6-5.62,0-1.59.53-2.85,1.58-3.76,1.05-.91,2.71-1.37,4.97-1.37h5.13c-.16-.97-.58-1.63-1.25-1.96-.67-.33-1.82-.5-3.43-.5-1.02,0-2.02.08-3,.23-.98.15-1.84.32-2.58.5l-.1-.07.04-4.02c.46-.14,1.05-.27,1.77-.4s1.47-.23,2.27-.29c.8-.07,1.54-.1,2.24-.1ZM201.06,156.85c1.43,0,2.51-.18,3.22-.54s1.09-.93,1.11-1.72v-.87h-3.92c-1.02,0-1.73.14-2.13.43-.4.29-.61.67-.61,1.16,0,.58.21.98.62,1.2.42.22.98.33,1.7.33Z"/>
  </g>
</svg>