<?xml version="1.0" encoding="UTF-8"?>
<svg id="Livello_1" data-name="Livello 1" xmlns="http://www.w3.org/2000/svg" viewBox="0 0 1170 2532">
  <defs>
    <style>
      .cls-1 {
        stroke: #b9ce00;
      }

      .cls-1, .cls-2 {
        fill: none;
        stroke-miterlimit: 10;
        stroke-width: 7px;
      }

      .cls-3 {
        fill: #2c6860;
      }

      .cls-4 {
        fill: #e52421;
      }

      .cls-5 {
        fill: #ce8a3b;
      }

      .cls-2 {
        stroke: #000;
      }

      .cls-6 {
        fill: #b9ce00;
      }
    </style>
  </defs>
  <rect class="cls-3" x="0" y="0" width="1170" height="2532"/>
  <g>
    <circle cx="309.62" cy="1066.6" r="26.07"/>
    <line class="cls-1" x1="20.52" y1="960.14" x2="1149.48" y2="960.14"/>
    <polygon class="cls-4" points="95.87 927.76 182.58 927.76 244.87 990.38 372.24 990.65 437.6 927.27 523.32 927.27 523.37 990.38 457.02 990.38 391.23 1069.56 223.74 1069.56 159.64 990.16 96.09 990.16 95.87 927.76"/>
    <line class="cls-2" x1="309.62" y1="1085.42" x2="309.62" y2="1166.97"/>
    <g>
      <rect class="cls-5" x="70.39" y="1350.17" width="437.49" height="67.23" transform="translate(-1115.11 1546.8) rotate(-84.82)"/>
      <polygon class="cls-5" points="335.47 1245.17 358.63 1229.7 327.02 1296.48 328.28 1245.61 335.47 1245.17"/>
      <polygon class="cls-5" points="323.01 1382.37 346.23 1366.95 314.56 1433.73 315.82 1382.81 323.01 1382.37"/>
      <polygon class="cls-5" points="310.55 1519.62 333.77 1504.14 302.1 1570.93 303.37 1520.06 310.55 1519.62"/>
      <polygon class="cls-5" points="258.09 1353.56 245.25 1302.58 270.22 1336.11 258.09 1353.56"/>
      <polygon class="cls-5" points="247.5 1470.17 234.66 1419.19 259.63 1452.72 247.5 1470.17"/>
    </g>
    <g>
      <path class="cls-6" d="M413.78,1599.91c-3.57,1.26-8.45,2.36-14.76,3.35-6.26.93-13.72,1.43-22.34,1.43-10.92,0-20.2-1.43-27.88-4.28-7.68-2.85-13.5-7.74-17.4-14.65-3.95-6.91-5.93-16.52-5.93-28.81,0-16.74,3.84-28.87,11.52-36.33,7.68-7.52,19.54-11.25,35.67-11.25,11.52,0,20.63,1.65,27.33,4.94,6.7,3.29,11.41,7.96,14.27,13.99s4.28,13.17,4.28,21.4c0,2.41-.11,4.99-.27,7.79-.16,2.8-.55,5.49-1.04,8.18l-.77.77h-62.62c.88,5.6,3.51,9.27,7.9,11.03s11.52,2.69,21.4,2.69c6.59,0,12.07-.16,16.46-.49s8.84-.77,13.39-1.43l.77.55v21.13h0ZM392.05,1546.45c0-3.07-.49-5.71-1.43-7.9s-2.8-3.95-5.6-5.16c-2.8-1.21-6.91-1.81-12.35-1.81-8.01,0-13.23,1.37-15.7,4.12s-3.73,6.31-3.73,10.76h38.8Z"/>
      <path class="cls-6" d="M465.15,1602.98h-30.46v-128.03h30.46v128.03Z"/>
      <path class="cls-6" d="M569.58,1599.91c-3.57,1.26-8.45,2.36-14.76,3.35-6.26.93-13.72,1.43-22.34,1.43-10.92,0-20.2-1.43-27.88-4.28-7.68-2.85-13.5-7.74-17.4-14.65-3.95-6.91-5.93-16.52-5.93-28.81,0-16.74,3.84-28.87,11.52-36.33,7.68-7.52,19.54-11.25,35.67-11.25,11.52,0,20.63,1.65,27.33,4.94,6.7,3.29,11.41,7.96,14.27,13.99s4.28,13.17,4.28,21.4c0,2.41-.11,4.99-.27,7.79-.16,2.8-.55,5.49-1.04,8.18l-.77.77h-62.62c.88,5.6,3.51,9.27,7.9,11.03s11.52,2.69,21.4,2.69c6.59,0,12.07-.16,16.46-.49s8.84-.77,13.39-1.43l.77.55v21.13h0ZM547.9,1546.45c0-3.07-.49-5.71-1.43-7.9s-2.8-3.95-5.6-5.16c-2.8-1.21-6.91-1.81-12.35-1.81-8.01,0-13.23,1.37-15.7,4.12s-3.73,6.31-3.73,10.76h38.8Z"/>
      <path class="cls-6" d="M582.91,1535.04v-24.75h13.5v-4.77c0-12.57,2.91-21.62,8.78-27.11,5.82-5.49,14.54-8.29,26.07-8.29,4.06,0,7.79.33,11.25,1.04,3.4.71,6.42,1.48,8.95,2.36v21.29l-.55.38c-2.3-.27-4.55-.44-6.86-.66-2.25-.16-4.45-.27-6.48-.27-4.34,0-7.3.77-9.05,2.36-1.7,1.59-2.58,4.01-2.58,7.3v6.26h25.52v24.75h-25.52v67.94h-29.52v-67.94h-13.5v.11Z"/>
      <path class="cls-6" d="M748.21,1599.91c-3.57,1.26-8.45,2.36-14.76,3.35-6.26.93-13.72,1.43-22.34,1.43-10.92,0-20.2-1.43-27.88-4.28-7.68-2.85-13.5-7.74-17.4-14.65-3.95-6.91-5.93-16.52-5.93-28.81,0-16.74,3.84-28.87,11.52-36.33,7.68-7.52,19.54-11.25,35.67-11.25,11.52,0,20.63,1.65,27.33,4.94,6.7,3.29,11.41,7.96,14.27,13.99,2.85,6.04,4.28,13.17,4.28,21.4,0,2.41-.11,4.99-.27,7.79s-.55,5.49-1.04,8.18l-.77.77h-62.62c.88,5.6,3.51,9.27,7.9,11.03s11.52,2.69,21.4,2.69c6.59,0,12.07-.16,16.46-.49s8.84-.77,13.39-1.43l.77.55v21.13h0ZM726.53,1546.45c0-3.07-.49-5.71-1.43-7.9s-2.8-3.95-5.6-5.16c-2.8-1.21-6.91-1.81-12.35-1.81-8.01,0-13.23,1.37-15.7,4.12s-3.73,6.31-3.73,10.76h38.8,0Z"/>
      <path class="cls-6" d="M799.63,1602.98h-30.46v-92.63h24.75l2.47,19.04h.55c1.15-7.13,3.84-12.18,8.18-15.31,4.34-3.13,10.7-4.66,19.21-4.66,3.4,0,6.53.16,9.33.44,2.8.33,5.16.6,7.02.88v29.69l-.38.38c-2.03-.49-4.34-.93-6.97-1.32-2.58-.38-5.54-.55-8.84-.55-4.66,0-8.89.77-12.68,2.3-3.73,1.54-6.64,4.5-8.78,8.84-2.09,4.39-3.13,10.87-3.13,19.54l-.38,33.48.11-.11Z"/>
      <path class="cls-6" d="M882.77,1475.88c.38,4.55.55,8.4.55,11.41,0,1.76,0,3.57-.11,5.43-.05,1.81-.22,3.9-.49,6.2-2.69.49-5.27.88-7.79,1.15-2.52.27-5.1.38-7.63.38s-4.83-.11-7.3-.38-4.99-.66-7.52-1.15c-.27-2.14-.44-4.17-.55-5.98s-.16-3.68-.16-5.43c0-1.65.05-3.46.16-5.32.11-1.92.33-4.01.55-6.31,2.52-.66,5.1-1.04,7.68-1.26s5.16-.27,7.74-.27c2.41,0,4.83.11,7.3.27s4.99.6,7.52,1.26h.05ZM882.77,1602.98h-30.46v-92.63h30.46v92.63Z"/>
      <path class="cls-6" d="M934.3,1602.98h-30.46v-120.46h30.46v50.43h.55c1.26,0,2.74-.99,4.5-3.02s3.29-4.06,4.66-6.09l25.52-41.32h33.09v.55l-21.68,35.01c-1.92,3.18-4.06,6.59-6.48,10.15-2.41,3.62-4.77,6.8-7.13,9.55-2.36,2.74-4.39,4.39-6.2,5.05v.55c1.76.77,3.84,2.36,6.2,4.88,2.36,2.47,4.77,5.32,7.24,8.56,2.47,3.24,4.83,6.42,7.13,9.6l25.3,35.95v.55h-35.01l-23.76-36.55v.16c-.77-1.26-1.92-2.96-3.51-5.05s-3.24-4.01-4.94-5.82-3.18-2.69-4.45-2.69h-.93v49.83l-.11.16Z"/>
      <path class="cls-6" d="M1054.37,1509.36c12.18,0,22.01,1.26,29.47,3.79,7.46,2.52,12.95,7.19,16.46,13.99s5.21,16.57,5.21,29.41v46.43h-27.6l-.93-8.73h-.55c-2.41,3.18-6.15,5.71-11.25,7.63-5.1,1.92-11.69,2.85-19.81,2.85-21.95,0-32.93-10.26-32.93-30.84,0-8.73,2.91-15.64,8.67-20.63,5.76-4.99,14.87-7.52,27.27-7.52h28.15c-.88-5.32-3.18-8.95-6.86-10.76-3.68-1.81-9.99-2.74-18.82-2.74-5.6,0-11.09.44-16.46,1.26s-10.1,1.76-14.16,2.74l-.55-.38.22-22.06c2.52-.77,5.76-1.48,9.71-2.2,3.95-.71,8.07-1.26,12.46-1.59,4.39-.38,8.45-.55,12.29-.55v-.11ZM1053.22,1582.23c7.85,0,13.77-.99,17.67-2.96,3.9-1.98,5.98-5.1,6.09-9.44v-4.77h-21.51c-5.6,0-9.49.77-11.69,2.36-2.2,1.59-3.35,3.68-3.35,6.37,0,3.18,1.15,5.38,3.4,6.59,2.3,1.21,5.38,1.81,9.33,1.81l.05.05Z"/>
    </g>
  </g>
</svg>